<?xml version="1.0" standalone="no"?>
<!DOCTYPE svg PUBLIC "-//W3C//DTD SVG 20010904//EN"
 "http://www.w3.org/TR/2001/REC-SVG-20010904/DTD/svg10.dtd">
<svg version="1.0" xmlns="http://www.w3.org/2000/svg"
 width="473.000000pt" height="459.000000pt" viewBox="0 0 473.000000 459.000000"
 preserveAspectRatio="xMidYMid meet">

<g transform="translate(0.000000,459.000000) scale(0.100000,-0.100000)"
fill="#a855f7" stroke="none">
<path d="M72 4553 c-7 -3 -19 -18 -27 -33 -13 -25 -15 -266 -15 -1880 l0
-1851 25 -24 24 -25 791 0 c532 0 790 -3 790 -10 0 -11 -122 -458 -141 -517
l-11 -33 -147 0 c-135 0 -151 -2 -175 -21 -20 -16 -26 -29 -26 -59 0 -30 6
-43 26 -59 27 -21 28 -21 1184 -21 1156 0 1157 0 1184 21 37 29 37 89 0 118
-24 19 -40 21 -175 21 l-147 0 -11 33 c-19 59 -141 506 -141 517 0 7 258 10
790 10 l791 0 24 25 25 24 0 1851 c0 1976 2 1896 -45 1914 -20 7 -4574 7
-4593 -1z m4478 -1553 l0 -1400 -2180 0 -2180 0 0 1400 0 1400 2180 0 2180 0
0 -1400z m0 -1830 l0 -270 -2180 0 -2180 0 0 270 0 270 2180 0 2180 0 0 -270z
m-1571 -697 c41 -148 76 -274 79 -280 3 -10 -139 -13 -688 -13 -549 0 -691 3
-688 13 3 6 38 132 79 280 l74 267 535 0 535 0 74 -267z"/>
<path d="M505 3865 l-25 -24 0 -891 0 -891 25 -24 24 -25 866 0 866 0 24 25
25 24 0 891 0 891 -25 24 -24 25 -866 0 -866 0 -24 -25z m1645 -915 l0 -780
-755 0 -755 0 0 780 0 780 755 0 755 0 0 -780z"/>
<path d="M1293 3622 c-147 -52 -227 -165 -227 -317 0 -98 21 -152 90 -225 68
-73 139 -104 239 -104 68 -1 89 3 136 27 67 32 142 109 172 175 32 72 30 189
-4 263 -72 154 -255 235 -406 181z m183 -169 c50 -23 78 -69 82 -138 3 -50 0
-66 -20 -95 -74 -108 -212 -109 -285 -1 -32 47 -32 125 0 171 55 82 134 104
223 63z"/>
<path d="M1040 2973 c-28 -10 -66 -37 -101 -72 -83 -84 -89 -109 -89 -371 0
-205 1 -219 21 -244 l20 -26 504 0 504 0 20 26 c20 25 21 39 21 244 0 262 -6
288 -89 371 -63 62 -124 89 -202 89 -43 0 -53 -5 -86 -39 -57 -57 -98 -75
-168 -75 -70 0 -110 18 -166 75 -35 36 -42 39 -91 38 -29 0 -73 -8 -98 -16z
m210 -237 c36 -16 65 -20 145 -21 112 0 152 13 237 78 l47 36 33 -22 c58 -39
68 -73 68 -239 l0 -148 -385 0 -385 0 0 148 c0 166 10 200 68 239 l33 22 47
-36 c26 -20 67 -45 92 -57z"/>
<path d="M2455 3475 c-16 -15 -25 -36 -25 -55 0 -19 9 -40 25 -55 l24 -25 471
0 471 0 24 25 c16 15 25 36 25 55 0 19 -9 40 -25 55 l-24 25 -471 0 -471 0
-24 -25z"/>
<path d="M2455 3005 c-16 -15 -25 -36 -25 -55 0 -19 9 -40 25 -55 l24 -25 866
0 866 0 24 25 c33 32 33 78 0 110 l-24 25 -866 0 -866 0 -24 -25z"/>
<path d="M2455 2535 c-16 -15 -25 -36 -25 -55 0 -19 9 -40 25 -55 l24 -25 866
0 866 0 24 25 c33 32 33 78 0 110 l-24 25 -866 0 -866 0 -24 -25z"/>
</g>
</svg>
